{
    "asset" : {
        "generator" : "Khronos glTF Blender I/O v1.1.46",
        "version" : "2.0"
    },
    "scene" : 0,
    "scenes" : [
        {
            "name" : "Scene",
            "nodes" : [
                0,
                1,
                2
            ]
        }
    ],
    "nodes" : [
        {
            "mesh" : 0,
            "name" : "DownPart",
            "rotation" : [
                0.2988912761211395,
                0,
                0,
                0.9542871713638306
            ],
            "scale" : [
                0.7664536833763123,
                0.12780314683914185,
                0.15536117553710938
            ],
            "translation" : [
                0.0033743875101208687,
                -4.578582763671875,
                -1.3707607984542847
            ]
        },
        {
            "mesh" : 1,
            "name" : "StrapDown",
            "rotation" : [
                -0.1065433919429779,
                0,
                0,
                0.9943080544471741
            ],
            "scale" : [
                0.5895029902458191,
                -0.1280159056186676,
                0.1280159056186676
            ],
            "translation" : [
                -0.0018203910440206528,
                -1.622389554977417,
                -0.18615394830703735
            ]
        },
        {
            "mesh" : 2,
            "name" : "StrapUp",
            "rotation" : [
                -0.1065433919429779,
                0,
                0,
                0.9943080544471741
            ],
            "scale" : [
                0.5895029902458191,
                0.1280159056186676,
                0.1280159056186676
            ],
            "translation" : [
                -0.0018203910440206528,
                1.6601707935333252,
                -0.2727090120315552
            ]
        }
    ],
    "materials" : [
        {
            "doubleSided" : true,
            "name" : "leather",
            "pbrMetallicRoughness" : {}
        }
    ],
    "meshes" : [
        {
            "name" : "Cylinder.008",
            "primitives" : [
                {
                    "attributes" : {
                        "POSITION" : 0,
                        "NORMAL" : 1,
                        "TEXCOORD_0" : 2
                    },
                    "indices" : 3,
                    "material" : 0
                }
            ]
        },
        {
            "name" : "Cube.008",
            "primitives" : [
                {
                    "attributes" : {
                        "POSITION" : 4,
                        "NORMAL" : 5,
                        "TEXCOORD_0" : 6
                    },
                    "indices" : 7,
                    "material" : 0
                }
            ]
        },
        {
            "name" : "Cube.005",
            "primitives" : [
                {
                    "attributes" : {
                        "POSITION" : 8,
                        "NORMAL" : 9,
                        "TEXCOORD_0" : 10
                    },
                    "indices" : 11,
                    "material" : 0
                }
            ]
        }
    ],
    "accessors" : [
        {
            "bufferView" : 0,
            "componentType" : 5126,
            "count" : 918,
            "max" : [
                0.7919252514839172,
                4.732989311218262,
                1.0625041723251343
            ],
            "min" : [
                -0.7919872999191284,
                -0.9294300079345703,
                -0.5188471078872681
            ],
            "type" : "VEC3"
        },
        {
            "bufferView" : 1,
            "componentType" : 5126,
            "count" : 918,
            "type" : "VEC3"
        },
        {
            "bufferView" : 2,
            "componentType" : 5126,
            "count" : 918,
            "type" : "VEC2"
        },
        {
            "bufferView" : 3,
            "componentType" : 5123,
            "count" : 4608,
            "type" : "SCALAR"
        },
        {
            "bufferView" : 4,
            "componentType" : 5126,
            "count" : 11374,
            "max" : [
                1.135870099067688,
                26.645742416381836,
                0.8534729480743408
            ],
            "min" : [
                -1.135870099067688,
                -3.655517101287842,
                -25.782455444335938
            ],
            "type" : "VEC3"
        },
        {
            "bufferView" : 5,
            "componentType" : 5126,
            "count" : 11374,
            "type" : "VEC3"
        },
        {
            "bufferView" : 6,
            "componentType" : 5126,
            "count" : 11374,
            "type" : "VEC2"
        },
        {
            "bufferView" : 7,
            "componentType" : 5123,
            "count" : 59664,
            "type" : "SCALAR"
        },
        {
            "bufferView" : 8,
            "componentType" : 5126,
            "count" : 12153,
            "max" : [
                1.0134028196334839,
                27.19905662536621,
                0.8058054447174072
            ],
            "min" : [
                -1.0134028196334839,
                -3.655519962310791,
                -26.701616287231445
            ],
            "type" : "VEC3"
        },
        {
            "bufferView" : 9,
            "componentType" : 5126,
            "count" : 12153,
            "type" : "VEC3"
        },
        {
            "bufferView" : 10,
            "componentType" : 5126,
            "count" : 12153,
            "type" : "VEC2"
        },
        {
            "bufferView" : 11,
            "componentType" : 5123,
            "count" : 58560,
            "type" : "SCALAR"
        }
    ],
    "bufferViews" : [
        {
            "buffer" : 0,
            "byteLength" : 11016,
            "byteOffset" : 0
        },
        {
            "buffer" : 0,
            "byteLength" : 11016,
            "byteOffset" : 11016
        },
        {
            "buffer" : 0,
            "byteLength" : 7344,
            "byteOffset" : 22032
        },
        {
            "buffer" : 0,
            "byteLength" : 9216,
            "byteOffset" : 29376
        },
        {
            "buffer" : 0,
            "byteLength" : 136488,
            "byteOffset" : 38592
        },
        {
            "buffer" : 0,
            "byteLength" : 136488,
            "byteOffset" : 175080
        },
        {
            "buffer" : 0,
            "byteLength" : 90992,
            "byteOffset" : 311568
        },
        {
            "buffer" : 0,
            "byteLength" : 119328,
            "byteOffset" : 402560
        },
        {
            "buffer" : 0,
            "byteLength" : 145836,
            "byteOffset" : 521888
        },
        {
            "buffer" : 0,
            "byteLength" : 145836,
            "byteOffset" : 667724
        },
        {
            "buffer" : 0,
            "byteLength" : 97224,
            "byteOffset" : 813560
        },
        {
            "buffer" : 0,
            "byteLength" : 117120,
            "byteOffset" : 910784
        }
    ],
    "buffers" : [
        {
            "byteLength" : 1027904,
            "uri" : "data:application/octet-stream;base64,"
        }
    ]
}
