{
    "asset" : {
        "generator" : "Khronos glTF Blender I/O v1.1.46",
        "version" : "2.0"
    },
    "scene" : 0,
    "scenes" : [
        {
            "name" : "Scene",
            "nodes" : [
                0
            ]
        }
    ],
    "nodes" : [
        {
            "mesh" : 0,
            "name" : "Decoration",
            "rotation" : [
                0,
                0,
                -0.258819043636322,
                0.9659258127212524
            ],
            "translation" : [
                0,
                0,
                0.2331850230693817
            ]
        }
    ],
    "materials" : [
        {
            "doubleSided" : true,
            "name" : "metal.001",
            "pbrMetallicRoughness" : {}
        }
    ],
    "meshes" : [
        {
            "name" : "Cube.004",
            "primitives" : [
                {
                    "attributes" : {
                        "POSITION" : 0,
                        "NORMAL" : 1,
                        "TEXCOORD_0" : 2
                    },
                    "indices" : 3,
                    "material" : 0
                },
                {
                    "attributes" : {
                        "POSITION" : 4,
                        "NORMAL" : 5,
                        "TEXCOORD_0" : 6
                    },
                    "indices" : 7
                }
            ]
        }
    ],
    "accessors" : [
        {
            "bufferView" : 0,
            "componentType" : 5126,
            "count" : 352,
            "max" : [
                0.8885287642478943,
                0.8611461520195007,
                0.007508157752454281
            ],
            "min" : [
                -0.8856462836265564,
                -0.9130289554595947,
                -0.001385282608680427
            ],
            "type" : "VEC3"
        },
        {
            "bufferView" : 1,
            "componentType" : 5126,
            "count" : 352,
            "type" : "VEC3"
        },
        {
            "bufferView" : 2,
            "componentType" : 5126,
            "count" : 352,
            "type" : "VEC2"
        },
        {
            "bufferView" : 3,
            "componentType" : 5123,
            "count" : 594,
            "type" : "SCALAR"
        },
        {
            "bufferView" : 4,
            "componentType" : 5126,
            "count" : 920,
            "max" : [
                0.41938158869743347,
                0.7254195213317871,
                0.02873794175684452
            ],
            "min" : [
                -0.4737844467163086,
                -0.8878073692321777,
                -0.015235820785164833
            ],
            "type" : "VEC3"
        },
        {
            "bufferView" : 5,
            "componentType" : 5126,
            "count" : 920,
            "type" : "VEC3"
        },
        {
            "bufferView" : 6,
            "componentType" : 5126,
            "count" : 920,
            "type" : "VEC2"
        },
        {
            "bufferView" : 7,
            "componentType" : 5123,
            "count" : 3780,
            "type" : "SCALAR"
        }
    ],
    "bufferViews" : [
        {
            "buffer" : 0,
            "byteLength" : 4224,
            "byteOffset" : 0
        },
        {
            "buffer" : 0,
            "byteLength" : 4224,
            "byteOffset" : 4224
        },
        {
            "buffer" : 0,
            "byteLength" : 2816,
            "byteOffset" : 8448
        },
        {
            "buffer" : 0,
            "byteLength" : 1188,
            "byteOffset" : 11264
        },
        {
            "buffer" : 0,
            "byteLength" : 11040,
            "byteOffset" : 12452
        },
        {
            "buffer" : 0,
            "byteLength" : 11040,
            "byteOffset" : 23492
        },
        {
            "buffer" : 0,
            "byteLength" : 7360,
            "byteOffset" : 34532
        },
        {
            "buffer" : 0,
            "byteLength" : 7560,
            "byteOffset" : 41892
        }
    ],
    "buffers" : [
        {
            "byteLength" : 49452,
            "uri" : "data:application/octet-stream;base64,"
        }
    ]
}
