{
    "asset" : {
        "generator" : "Khronos glTF Blender I/O v1.1.46",
        "version" : "2.0"
    },
    "scene" : 0,
    "scenes" : [
        {
            "name" : "Scene",
            "nodes" : [
                0
            ]
        }
    ],
    "nodes" : [
        {
            "mesh" : 0,
            "name" : "Decorations",
            "rotation" : [
                -0.40717509388923645,
                -0.4071750342845917,
                -0.5781076550483704,
                0.5781076550483704
            ],
            "scale" : [
                0.06766223162412643,
                0.7805252075195312,
                0.06766223162412643
            ],
            "translation" : [
                0.0006759464740753174,
                -5.404604911804199,
                -2.5561933517456055
            ]
        }
    ],
    "materials" : [
        {
            "doubleSided" : true,
            "name" : "metal",
            "pbrMetallicRoughness" : {}
        }
    ],
    "meshes" : [
        {
            "name" : "Cylinder.004",
            "primitives" : [
                {
                    "attributes" : {
                        "POSITION" : 0,
                        "NORMAL" : 1,
                        "TEXCOORD_0" : 2
                    },
                    "indices" : 3,
                    "material" : 0
                }
            ]
        }
    ],
    "accessors" : [
        {
            "bufferView" : 0,
            "componentType" : 5126,
            "count" : 12115,
            "max" : [
                13.129544258117676,
                1.6842902898788452,
                98.32461547851562
            ],
            "min" : [
                -2.1094977855682373,
                -0.9858773946762085,
                -12.284029006958008
            ],
            "type" : "VEC3"
        },
        {
            "bufferView" : 1,
            "componentType" : 5126,
            "count" : 12115,
            "type" : "VEC3"
        },
        {
            "bufferView" : 2,
            "componentType" : 5126,
            "count" : 12115,
            "type" : "VEC2"
        },
        {
            "bufferView" : 3,
            "componentType" : 5123,
            "count" : 41040,
            "type" : "SCALAR"
        }
    ],
    "bufferViews" : [
        {
            "buffer" : 0,
            "byteLength" : 145380,
            "byteOffset" : 0
        },
        {
            "buffer" : 0,
            "byteLength" : 145380,
            "byteOffset" : 145380
        },
        {
            "buffer" : 0,
            "byteLength" : 96920,
            "byteOffset" : 290760
        },
        {
            "buffer" : 0,
            "byteLength" : 82080,
            "byteOffset" : 387680
        }
    ],
    "buffers" : [
        {
            "byteLength" : 469760,
            "uri" : "data:application/octet-stream;base64,"
        }
    ]
}
